<mxfile host="Electron" agent="Mozilla/5.0 (Windows NT 10.0; Win64; x64) AppleWebKit/537.36 (KHTML, like Gecko) draw.io/25.0.2 Chrome/128.0.6613.186 Electron/32.2.5 Safari/537.36" version="25.0.2">
  <diagram name="Страница — 1" id="PeaMwobM4UWotFXTlUND">
    <mxGraphModel dx="2390" dy="1407" grid="1" gridSize="10" guides="1" tooltips="1" connect="1" arrows="1" fold="1" page="1" pageScale="1" pageWidth="5000" pageHeight="5000" math="0" shadow="0">
      <root>
        <mxCell id="0" />
        <mxCell id="1" parent="0" />
        <mxCell id="6nUqvArvpno996wvTfeg-1" value="База данных" style="image;aspect=fixed;perimeter=ellipsePerimeter;html=1;align=center;shadow=0;dashed=0;spacingTop=3;image=img/lib/active_directory/databases.svg;fontSize=15;" parent="1" vertex="1">
          <mxGeometry x="691.95" y="540" width="132.65" height="130" as="geometry" />
        </mxCell>
        <mxCell id="6nUqvArvpno996wvTfeg-2" value="API" style="image;aspect=fixed;perimeter=ellipsePerimeter;html=1;align=center;shadow=0;dashed=0;spacingTop=3;image=img/lib/active_directory/generic_server.svg;fontSize=14;" parent="1" vertex="1">
          <mxGeometry x="1230" y="540" width="72.8" height="130" as="geometry" />
        </mxCell>
        <mxCell id="6nUqvArvpno996wvTfeg-3" value="Настольное приложение" style="image;aspect=fixed;perimeter=ellipsePerimeter;html=1;align=center;shadow=0;dashed=0;spacingTop=3;image=img/lib/active_directory/vista_terminal.svg;fontSize=14;" parent="1" vertex="1">
          <mxGeometry x="1218.3" y="280" width="84.5" height="130" as="geometry" />
        </mxCell>
        <mxCell id="6nUqvArvpno996wvTfeg-4" value="Веб-сайт" style="image;aspect=fixed;perimeter=ellipsePerimeter;html=1;align=center;shadow=0;dashed=0;spacingTop=3;image=img/lib/active_directory/home_page.svg;fontSize=14;" parent="1" vertex="1">
          <mxGeometry x="1730" y="550" width="144.44" height="130" as="geometry" />
        </mxCell>
        <mxCell id="6nUqvArvpno996wvTfeg-5" value="Внешнее API" style="image;aspect=fixed;perimeter=ellipsePerimeter;html=1;align=center;shadow=0;dashed=0;spacingTop=3;image=img/lib/active_directory/web_server.svg;fontSize=14;" parent="1" vertex="1">
          <mxGeometry x="1540" y="820" width="104" height="130" as="geometry" />
        </mxCell>
        <mxCell id="6nUqvArvpno996wvTfeg-6" value="Мобильное приложение" style="image;aspect=fixed;perimeter=ellipsePerimeter;html=1;align=center;shadow=0;dashed=0;spacingTop=3;image=img/lib/active_directory/cell_phone.svg;fontSize=14;" parent="1" vertex="1">
          <mxGeometry x="1239.1" y="820" width="54.6" height="130" as="geometry" />
        </mxCell>
        <mxCell id="6nUqvArvpno996wvTfeg-8" value="" style="html=1;shadow=0;dashed=0;align=center;verticalAlign=middle;shape=mxgraph.arrows2.twoWayArrow;dy=0.65;dx=22;rotation=90;" parent="1" vertex="1">
          <mxGeometry x="1224.73" y="460" width="83.33" height="50" as="geometry" />
        </mxCell>
        <mxCell id="6nUqvArvpno996wvTfeg-9" value="" style="html=1;shadow=0;dashed=0;align=center;verticalAlign=middle;shape=mxgraph.arrows2.twoWayArrow;dy=0.65;dx=22;rotation=0;" parent="1" vertex="1">
          <mxGeometry x="1390" y="800" width="83.33" height="50" as="geometry" />
        </mxCell>
        <mxCell id="6nUqvArvpno996wvTfeg-10" value="" style="html=1;shadow=0;dashed=0;align=center;verticalAlign=middle;shape=mxgraph.arrows2.twoWayArrow;dy=0.65;dx=22;rotation=0;" parent="1" vertex="1">
          <mxGeometry x="1370" y="590" width="83.33" height="50" as="geometry" />
        </mxCell>
        <mxCell id="6nUqvArvpno996wvTfeg-12" value="" style="html=1;shadow=0;dashed=0;align=center;verticalAlign=middle;shape=mxgraph.arrows2.arrow;dy=0.6;dx=40;notch=0;rotation=-60;" parent="1" vertex="1">
          <mxGeometry x="1630" y="750" width="83" height="50" as="geometry" />
        </mxCell>
        <mxCell id="6nUqvArvpno996wvTfeg-14" value="" style="html=1;shadow=0;dashed=0;align=center;verticalAlign=middle;shape=mxgraph.arrows2.twoWayArrow;dy=0.65;dx=22;rotation=0;" parent="1" vertex="1">
          <mxGeometry x="860" y="580" width="83.33" height="50" as="geometry" />
        </mxCell>
        <mxCell id="3w8vfXfizpoETC5X9kdN-1" value="&lt;p class=&quot;MsoNormal&quot; style=&quot;margin: 0cm 0cm 0.0001pt; line-height: normal;&quot;&gt;&lt;span style=&quot;font-size:12.0pt;font-family:&amp;quot;Times New Roman&amp;quot;,serif;mso-fareast-font-family:&lt;br/&gt;&amp;quot;Times New Roman&amp;quot;&quot;&gt;&lt;span style=&quot;font-variant-numeric: normal; font-variant-east-asian: normal; font-variant-alternates: normal; font-size-adjust: none; font-kerning: auto; font-optical-sizing: auto; font-feature-settings: normal; font-variation-settings: normal; font-variant-position: normal; font-stretch: normal; font-size: 7pt; line-height: normal; font-family: &amp;quot;Times New Roman&amp;quot;;&quot;&gt;&amp;nbsp;&lt;/span&gt;&lt;/span&gt;&lt;span style=&quot;font-size:12.0pt;font-family:&amp;quot;Times New Roman&amp;quot;,serif&quot;&gt;Модуль “Управление персоналом”&lt;/span&gt;&lt;/p&gt;&lt;p class=&quot;MsoNormal&quot; style=&quot;margin: 0cm 0cm 0.0001pt; line-height: normal;&quot;&gt;&lt;span style=&quot;font-family: &amp;quot;Times New Roman&amp;quot;, serif; font-size: 16px;&quot;&gt;Модуль “Узлы структурных подразделений компании”&lt;/span&gt;&lt;span style=&quot;font-size:12.0pt;font-family:&amp;quot;Times New Roman&amp;quot;,serif&quot;&gt;&lt;br&gt;&lt;/span&gt;&lt;/p&gt;" style="text;html=1;align=center;verticalAlign=middle;whiteSpace=wrap;rounded=0;" parent="1" vertex="1">
          <mxGeometry x="939.96" y="330" width="260" height="30" as="geometry" />
        </mxCell>
        <mxCell id="XYXrT4Lq5NBKRMDPaWNo-2" value="&lt;p style=&quot;margin: 0cm 0cm 0.0001pt; line-height: normal;&quot; class=&quot;MsoNormal&quot;&gt;&lt;span style=&quot;font-size:12.0pt;font-family:&amp;quot;Times New Roman&amp;quot;,serif;mso-fareast-font-family:&lt;br/&gt;&amp;quot;Times New Roman&amp;quot;&quot;&gt;&lt;span style=&quot;font-variant-numeric: normal; font-variant-east-asian: normal; font-variant-alternates: normal; font-size-adjust: none; font-kerning: auto; font-optical-sizing: auto; font-feature-settings: normal; font-variation-settings: normal; font-variant-position: normal; font-stretch: normal; font-size: 7pt; line-height: normal; font-family: &amp;quot;Times New Roman&amp;quot;;&quot;&gt;&amp;nbsp;&lt;/span&gt;&lt;/span&gt;&lt;span style=&quot;font-size:12.0pt;font-family:&amp;quot;Times New Roman&amp;quot;,serif&quot;&gt;Модуль “Единая библиотека корпоративных данных”&lt;/span&gt;&lt;/p&gt;&lt;p style=&quot;margin: 0cm 0cm 0.0001pt; line-height: normal;&quot; class=&quot;MsoNormal&quot;&gt;&lt;span style=&quot;font-family: &amp;quot;Times New Roman&amp;quot;, serif; font-size: 16px;&quot;&gt;Модуль “Узлы структурных подразделений компании”&lt;/span&gt;&lt;span style=&quot;font-size:12.0pt;font-family:&amp;quot;Times New Roman&amp;quot;,serif&quot;&gt;&lt;br&gt;&lt;/span&gt;&lt;/p&gt;" style="text;html=1;align=center;verticalAlign=middle;whiteSpace=wrap;rounded=0;" vertex="1" parent="1">
          <mxGeometry x="490" y="590" width="190" height="30" as="geometry" />
        </mxCell>
        <mxCell id="XYXrT4Lq5NBKRMDPaWNo-3" value="&lt;p class=&quot;MsoNormal&quot; style=&quot;margin: 0cm 0cm 0.0001pt; line-height: normal;&quot;&gt;&lt;span style=&quot;font-size:12.0pt;font-family:&amp;quot;Times New Roman&amp;quot;,serif;mso-fareast-font-family:&lt;br/&gt;&amp;quot;Times New Roman&amp;quot;&quot;&gt;&lt;span style=&quot;font-variant-numeric: normal; font-variant-east-asian: normal; font-variant-alternates: normal; font-size-adjust: none; font-kerning: auto; font-optical-sizing: auto; font-feature-settings: normal; font-variation-settings: normal; font-variant-position: normal; font-stretch: normal; font-size: 7pt; line-height: normal; font-family: &amp;quot;Times New Roman&amp;quot;;&quot;&gt;&amp;nbsp;&lt;/span&gt;&lt;/span&gt;&lt;span style=&quot;font-size:12.0pt;font-family:&amp;quot;Times New Roman&amp;quot;,serif&quot;&gt;Модуль “Личный кабинет”&lt;/span&gt;&lt;/p&gt;&lt;p class=&quot;MsoNormal&quot; style=&quot;margin: 0cm 0cm 0.0001pt; line-height: normal;&quot;&gt;&lt;span style=&quot;font-size: 12pt; font-family: &amp;quot;Times New Roman&amp;quot;, serif;&quot;&gt;&lt;span style=&quot;font-variant-numeric: normal; font-variant-east-asian: normal; font-variant-alternates: normal; font-size-adjust: none; font-kerning: auto; font-optical-sizing: auto; font-feature-settings: normal; font-variation-settings: normal; font-variant-position: normal; font-stretch: normal; font-size: 7pt; line-height: normal; font-family: &amp;quot;Times New Roman&amp;quot;;&quot;&gt;&amp;nbsp;&lt;/span&gt;&lt;/span&gt;&lt;span style=&quot;font-size: 12pt; font-family: &amp;quot;Times New Roman&amp;quot;, serif;&quot;&gt;Модуль “Управление персоналом”&lt;/span&gt;&lt;/p&gt;&lt;p class=&quot;MsoNormal&quot; style=&quot;margin: 0cm 0cm 0.0001pt; line-height: normal;&quot;&gt;&lt;span style=&quot;font-family: &amp;quot;Times New Roman&amp;quot;, serif; font-size: 16px;&quot;&gt;Модуль “Узлы структурных подразделений компании”&lt;/span&gt;&lt;/p&gt;&lt;p class=&quot;MsoNormal&quot; style=&quot;margin: 0cm 0cm 0.0001pt; line-height: normal;&quot;&gt;&lt;span style=&quot;font-family: &amp;quot;Times New Roman&amp;quot;, serif; text-align: justify; text-indent: 28.3pt; background-color: initial;&quot;&gt;&lt;font style=&quot;font-size: 16px;&quot;&gt;Модуль “Единая Библиотека&lt;br/&gt;корпоративных данных”&lt;/font&gt;&lt;/span&gt;&lt;/p&gt;&lt;p class=&quot;MsoNormal&quot; style=&quot;margin: 0cm 0cm 0.0001pt; line-height: normal;&quot;&gt;&lt;span style=&quot;font-family: &amp;quot;Times New Roman&amp;quot;, serif; font-size: 16px;&quot;&gt;&lt;br&gt;&lt;/span&gt;&lt;/p&gt;" style="text;html=1;align=center;verticalAlign=middle;whiteSpace=wrap;rounded=0;" vertex="1" parent="1">
          <mxGeometry x="970" y="600" width="260" height="30" as="geometry" />
        </mxCell>
        <mxCell id="XYXrT4Lq5NBKRMDPaWNo-6" value="&lt;p style=&quot;margin-top: 0cm; margin-right: 0cm; margin-bottom: 0.0001pt; text-indent: 28.3pt;&quot; class=&quot;MsoNormal&quot;&gt;&lt;span style=&quot;font-family:&amp;quot;Times New Roman&amp;quot;,serif;&lt;br/&gt;mso-fareast-font-family:&amp;quot;Times New Roman&amp;quot;&quot;&gt;Модуль “Общей корпоративной&lt;br&gt;информации”&lt;/span&gt;&lt;/p&gt;&lt;p style=&quot;margin-top: 0cm; margin-right: 0cm; margin-bottom: 0.0001pt; text-indent: 28.3pt;&quot; class=&quot;MsoNormal&quot;&gt;&lt;span style=&quot;background-color: initial; font-family: &amp;quot;Times New Roman&amp;quot;, serif; text-indent: 28.3pt;&quot;&gt;Модуль “Элементы управления”&lt;/span&gt;&lt;/p&gt;&lt;p style=&quot;margin-top: 0cm; margin-right: 0cm; margin-bottom: 0.0001pt; text-indent: 28.3pt;&quot; class=&quot;MsoNormal&quot;&gt;&lt;span style=&quot;font-family: &amp;quot;Times New Roman&amp;quot;, serif; text-indent: 28.3pt; background-color: initial;&quot;&gt;Модуль “Единая Библиотека&lt;/span&gt;&lt;/p&gt;&lt;p style=&quot;margin-top: 0cm; margin-right: 0cm; margin-bottom: 0.0001pt; text-indent: 28.3pt;&quot; class=&quot;MsoNormal&quot;&gt;&lt;span style=&quot;font-family:&amp;quot;Times New Roman&amp;quot;,serif;&lt;br/&gt;mso-fareast-font-family:&amp;quot;Times New Roman&amp;quot;&quot;&gt;корпоративных данных”&lt;/span&gt;&lt;/p&gt;" style="text;html=1;align=center;verticalAlign=middle;fontSize=16;spacing=0;" vertex="1" parent="1">
          <mxGeometry x="1520" y="590" width="160" height="30" as="geometry" />
        </mxCell>
        <mxCell id="XYXrT4Lq5NBKRMDPaWNo-10" value="" style="html=1;shadow=0;dashed=0;align=center;verticalAlign=middle;shape=mxgraph.arrows2.twoWayArrow;dy=0.65;dx=22;rotation=90;" vertex="1" parent="1">
          <mxGeometry x="1224.73" y="730" width="83.33" height="50" as="geometry" />
        </mxCell>
        <mxCell id="XYXrT4Lq5NBKRMDPaWNo-11" value="" style="html=1;shadow=0;dashed=0;align=center;verticalAlign=middle;shape=mxgraph.arrows2.arrow;dy=0.6;dx=40;notch=0;rotation=-180;" vertex="1" parent="1">
          <mxGeometry x="1380" y="870" width="83" height="50" as="geometry" />
        </mxCell>
      </root>
    </mxGraphModel>
  </diagram>
</mxfile>
